<svg xmlns="http://www.w3.org/2000/svg" width="1200" height="370" viewBox="0 0 1200 370" role="img" aria-labelledby="title desc">
  <title id="title">CloudYiC live GitHub metrics</title><desc id="desc">Automatically generated public GitHub repository, follower, star, fork and language metrics.</desc>
  <defs><linearGradient id="bg"><stop stop-color="#7ECDF5"/><stop offset=".55" stop-color="#D8F0FD"/><stop offset="1" stop-color="#FFFFFF"/></linearGradient><linearGradient id="g"><stop stop-color="#0284C7"/><stop offset=".5" stop-color="#3B82F6"/><stop offset="1" stop-color="#8B5CF6"/></linearGradient><pattern id="grid" width="26" height="26" patternUnits="userSpaceOnUse"><path d="M26 0H0V26" fill="none" stroke="#075985" stroke-opacity=".07"/></pattern><filter id="glow"><feGaussianBlur stdDeviation="3" result="b"/><feMerge><feMergeNode in="b"/><feMergeNode in="SourceGraphic"/></feMerge></filter><filter id="cloud"><feGaussianBlur stdDeviation="12"/></filter></defs>
  <style>.m{font-family:"Cascadia Code",Consolas,monospace}.p{animation:p 2s ease-in-out infinite}[fill="#09111F"],[fill="#080E18"]{fill:#FFFFFF;fill-opacity:.84}[fill="#162033"]{fill:#D7ECF8}[fill="#CBD5E1"]{fill:#153B56}[fill="#94A3B8"]{fill:#365F7A}[fill="#64748B"]{fill:#52758C}[fill="#475569"],[fill="#334155"]{fill:#6FA4C2}[fill="#A78BFA"]{fill:#7C3AED}[stroke="#334155"],[stroke="#25354B"],[stroke="#302C51"]{stroke:#78BCE1}@keyframes p{50%{opacity:.3}}@media(prefers-reduced-motion:reduce){.p{animation:none}}</style>
  <rect width="1200" height="370" rx="22" fill="url(#bg)"/><rect width="1200" height="370" rx="22" fill="url(#grid)"/><g fill="#FFFFFF" opacity=".5" filter="url(#cloud)"><ellipse cx="170" cy="350" rx="150" ry="34"/><ellipse cx="270" cy="338" rx="95" ry="44"/><ellipse cx="1080" cy="40" rx="125" ry="30"/></g><rect x="1" y="1" width="1198" height="368" rx="21" fill="none" stroke="#334155"/>
  <text class="m" x="40" y="38" fill="#0369A1" font-size="13" letter-spacing="2">03 // LIVE GITHUB TELEMETRY</text><circle class="p" cx="1138" cy="33" r="4" fill="#22C55E" filter="url(#glow)"/><text class="m" x="1124" y="37" text-anchor="end" fill="#64748B" font-size="10">SYNCED 2026-09-05 04:25 UTC</text>
  <g transform="translate(40 72)"><rect width="260" height="105" rx="12" fill="#09111F" stroke="#60A5C8"/><text class="m" x="18" y="27" fill="#64748B" font-size="10">PUBLIC REPOSITORIES</text><text class="m" x="18" y="73" fill="#0369A1" font-size="35">3</text><text class="m" x="239" y="74" text-anchor="end" fill="#60A5C8" font-size="26">01</text></g><g transform="translate(320 72)"><rect width="260" height="105" rx="12" fill="#09111F" stroke="#6FA8D8"/><text class="m" x="18" y="27" fill="#64748B" font-size="10">FOLLOWERS</text><text class="m" x="18" y="73" fill="#2563EB" font-size="35">0</text><text class="m" x="239" y="74" text-anchor="end" fill="#6FA8D8" font-size="26">02</text></g><g transform="translate(600 72)"><rect width="260" height="105" rx="12" fill="#09111F" stroke="#9B8BD4"/><text class="m" x="18" y="27" fill="#64748B" font-size="10">STARS EARNED</text><text class="m" x="18" y="73" fill="#7C3AED" font-size="35">0</text><text class="m" x="239" y="74" text-anchor="end" fill="#9B8BD4" font-size="26">03</text></g><g transform="translate(880 72)"><rect width="260" height="105" rx="12" fill="#09111F" stroke="#B28AD7"/><text class="m" x="18" y="27" fill="#64748B" font-size="10">FORKS</text><text class="m" x="18" y="73" fill="#9333EA" font-size="35">0</text><text class="m" x="239" y="74" text-anchor="end" fill="#B28AD7" font-size="26">04</text></g>
  <g transform="translate(40 204)"><rect width="680" height="126" rx="12" fill="#080E18" stroke="#25354B"/><text class="m" x="18" y="26" fill="#64748B" font-size="10">LANGUAGE SIGNAL // PRIMARY REPOSITORY LANGUAGE</text><text class="m" x="18" y="58" fill="#94A3B8" font-size="10">JavaScript</text><rect x="112" y="50" width="505" height="9" rx="4" fill="#162033"/><rect x="112" y="50" width="233" height="9" rx="4" fill="#F7DF1E"/><text class="m" x="633" y="58" text-anchor="end" fill="#475569" font-size="9">50%</text><text class="m" x="18" y="81" fill="#94A3B8" font-size="10">TypeScript</text><rect x="112" y="73" width="505" height="9" rx="4" fill="#162033"/><rect x="112" y="73" width="233" height="9" rx="4" fill="#3178C6"/><text class="m" x="633" y="81" text-anchor="end" fill="#475569" font-size="9">50%</text></g>
  <g transform="translate(740 204)"><rect width="420" height="126" rx="12" fill="#080E18" stroke="#302C51"/><text class="m" x="18" y="26" fill="#A78BFA" font-size="10">TOP MODULES // PUBLIC</text><text class="m" x="18" y="55" fill="#CBD5E1" font-size="11">01  CloudYiC</text><text class="m" x="342" y="55" text-anchor="end" fill="#A78BFA" font-size="10">★ 0</text><text class="m" x="18" y="84" fill="#CBD5E1" font-size="11">02  DesktopPet</text><text class="m" x="342" y="84" text-anchor="end" fill="#A78BFA" font-size="10">★ 0</text><text class="m" x="18" y="113" fill="#CBD5E1" font-size="11">03  CloudYiC-Shop</text><text class="m" x="342" y="113" text-anchor="end" fill="#A78BFA" font-size="10">★ 0</text></g>
  <text class="m" x="1148" y="354" text-anchor="end" fill="#334155" font-size="9">ACCOUNT AGE 2Y // LOCAL SVG // SOURCE GITHUB API</text>
</svg>